<svg width="32" height="32" viewBox="0 0 32 32" fill="none" xmlns="http://www.w3.org/2000/svg">
<path fill-rule="evenodd" clip-rule="evenodd" d="M18.9884 2.66663H13.0116C11.9383 2.66661 11.0525 2.6666 10.3309 2.72555C9.58144 2.78679 8.8925 2.91821 8.24539 3.24793C7.24186 3.75925 6.42596 4.57515 5.91464 5.57868C5.58492 6.22579 5.4535 6.91473 5.39226 7.66419C5.33331 8.38578 5.33332 9.27159 5.33334 10.3449V21.655C5.33332 22.7283 5.33331 23.6141 5.39226 24.3357C5.4535 25.0852 5.58492 25.7741 5.91464 26.4212C6.42596 27.4248 7.24186 28.2407 8.24539 28.752C8.8925 29.0817 9.58144 29.2131 10.3309 29.2744C11.0525 29.3333 11.9383 29.3333 13.0116 29.3333H18.9884C20.0617 29.3333 20.9475 29.3333 21.6691 29.2744C22.4186 29.2131 23.1075 29.0817 23.7546 28.752C24.7581 28.2407 25.574 27.4248 26.0854 26.4212C26.4151 25.7741 26.5465 25.0852 26.6077 24.3357C26.6667 23.6141 26.6667 22.7284 26.6667 21.6551V10.3449C26.6667 9.2716 26.6667 8.38577 26.6077 7.66419C26.5465 6.91473 26.4151 6.22579 26.0854 5.57868C25.574 4.57515 24.7581 3.75925 23.7546 3.24793C23.1075 2.91821 22.4186 2.78679 21.6691 2.72555C20.9475 2.6666 20.0617 2.66661 18.9884 2.66663ZM9.45603 5.62394C9.66457 5.51769 9.9635 5.43112 10.548 5.38336C10.9395 5.35138 11.406 5.33982 12 5.33564V6.66663C12 7.40301 12.5969 7.99996 13.3333 7.99996H18.6667C19.403 7.99996 20 7.40301 20 6.66663V5.33564C20.594 5.33982 21.0605 5.35138 21.4519 5.38336C22.0365 5.43112 22.3354 5.51769 22.544 5.62394C23.0457 5.87961 23.4537 6.28755 23.7093 6.78932C23.8156 6.99785 23.9022 7.29679 23.9499 7.88134C23.999 8.48146 24 9.25785 24 10.4V21.6C24 22.7421 23.999 23.5185 23.9499 24.1186C23.9022 24.7031 23.8156 25.0021 23.7093 25.2106C23.4537 25.7124 23.0457 26.1203 22.544 26.376C22.3354 26.4822 22.0365 26.5688 21.4519 26.6166C20.8518 26.6656 20.0754 26.6666 18.9333 26.6666H13.0667C11.9246 26.6666 11.1482 26.6656 10.548 26.6166C9.9635 26.5688 9.66457 26.4822 9.45603 26.376C8.95427 26.1203 8.54632 25.7124 8.29066 25.2106C8.1844 25.0021 8.09784 24.7031 8.05008 24.1186C8.00104 23.5185 8.00001 22.7421 8.00001 21.6V10.4C8.00001 9.25785 8.00104 8.48146 8.05008 7.88134C8.09784 7.29679 8.1844 6.99785 8.29066 6.78932C8.54632 6.28755 8.95427 5.87961 9.45603 5.62394Z" fill="black"/>
<path d="M16 25C17.1046 25 18 24.1046 18 23C18 21.8954 17.1046 21 16 21C14.8954 21 14 21.8954 14 23C14 24.1046 14.8954 25 16 25Z" fill="black"/>
</svg>
